{
  "accessors": [
    {
      "bufferView": 2,
      "componentType": 5126,
      "count": 33696,
      "max": [
        0.1579509973526001,
        0.16211000084877014,
        0.22914199531078339
      ],
      "min": [
        -0.13861900568008423,
        -0.10731100291013718,
        -0.14392900466918945
      ],
      "type": "VEC3"
    },
    {
      "bufferView": 2,
      "byteOffset": 404352,
      "componentType": 5126,
      "count": 33696,
      "max": [
        0.99999082088470459,
        0.99992489814758301,
        0.99983102083206177
      ],
      "min": [
        -0.99998486042022705,
        -0.99993610382080078,
        -0.99998605251312256
      ],
      "type": "VEC3"
    },
    {
      "bufferView": 1,
      "componentType": 5126,
      "count": 33696,
      "max": [
        0.99997597932815552,
        0.99336498975753784
      ],
      "min": [
        0,
        0
      ],
      "type": "VEC2"
    },
    {
      "bufferView": 0,
      "componentType": 5125,
      "count": 192366,
      "max": [
        33695
      ],
      "min": [
        0
      ],
      "type": "SCALAR"
    }
  ],
  "asset": {
    "extras": {
      "author": "Minneapolis Institute of Art (https://sketchfab.com/artsmia)",
      "license": "CC0-1.0 (http://creativecommons.org/publicdomain/zero/1.0/)",
      "source": "https://sketchfab.com/3d-models/guanacaste-jaguar-vessel-c-1100-1200-ce-6422726b447844a5bbacd6a00bbd0e3e",
      "title": "Guanacaste jaguar vessel, c. 1100-1200 CE"
    },
    "generator": "Sketchfab-7.80.0",
    "version": "2.0"
  },
  "bufferViews": [
    {
      "buffer": 0,
      "byteLength": 769464,
      "byteOffset": 0,
      "name": "floatBufferViews",
      "target": 34963
    },
    {
      "buffer": 0,
      "byteLength": 269568,
      "byteOffset": 769464,
      "byteStride": 8,
      "name": "floatBufferViews",
      "target": 34962
    },
    {
      "buffer": 0,
      "byteLength": 808704,
      "byteOffset": 1039032,
      "byteStride": 12,
      "name": "floatBufferViews",
      "target": 34962
    }
  ],
  "buffers": [
    {
      "byteLength": 1847736,
      "uri": "scene.bin"
    }
  ],
  "images": [
    {
      "uri": "textures/190206_mia348_000742_200_64Kmesh_OBJ_baseColor.jpeg"
    }
  ],
  "materials": [
    {
      "doubleSided": true,
      "emissiveFactor": [
        0,
        0,
        0
      ],
      "name": "190206_mia348_000742_200_64Kmesh_OBJ",
      "pbrMetallicRoughness": {
        "baseColorFactor": [
          1,
          1,
          1,
          1
        ],
        "baseColorTexture": {
          "index": 0,
          "texCoord": 0
        },
        "metallicFactor": 0,
        "roughnessFactor": 1
      }
    }
  ],
  "meshes": [
    {
      "primitives": [
        {
          "attributes": {
            "NORMAL": 1,
            "POSITION": 0,
            "TEXCOORD_0": 2
          },
          "indices": 3,
          "material": 0,
          "mode": 4
        }
      ]
    }
  ],
  "nodes": [
    {
      "children": [
        1
      ],
      "name": "RootNode (gltf orientation matrix)",
      "rotation": [
        -0.70710678118654746,
        -0,
        -0,
        0.70710678118654757
      ]
    },
    {
      "children": [
        2
      ],
      "name": "RootNode (model correction matrix)"
    },
    {
      "children": [
        3
      ],
      "name": "190206_mia348_000742_200_64Kmesh_OBJ_blender2.obj.cleaner.materialmerger.gles"
    },
    {
      "mesh": 0,
      "name": ""
    }
  ],
  "samplers": [
    {
      "magFilter": 9729,
      "minFilter": 9987,
      "wrapS": 10497,
      "wrapT": 10497
    }
  ],
  "scene": 0,
  "scenes": [
    {
      "name": "OSG_Scene",
      "nodes": [
        0
      ]
    }
  ],
  "textures": [
    {
      "sampler": 0,
      "source": 0
    }
  ]
}

