{
  "accessors": [
    {
      "bufferView": 2,
      "componentType": 5126,
      "count": 65532,
      "max": [
        6.244269847869873,
        11.882260322570801,
        12.030329704284668
      ],
      "min": [
        -13.096710205078125,
        -2.653130054473877,
        -3.9604599475860596
      ],
      "type": "VEC3"
    },
    {
      "bufferView": 2,
      "byteOffset": 786384,
      "componentType": 5126,
      "count": 65532,
      "max": [
        0.99995464086532593,
        0.99999338388442993,
        1
      ],
      "min": [
        -0.99999898672103882,
        -0.99996620416641235,
        -0.9995729923248291
      ],
      "type": "VEC3"
    },
    {
      "bufferView": 3,
      "componentType": 5126,
      "count": 65532,
      "max": [
        0.99999958276748657,
        0.99999320507049561,
        0.96550410985946655,
        1
      ],
      "min": [
        -0.9999992847442627,
        -0.99998956918716431,
        -0.93320631980895996,
        -1
      ],
      "type": "VEC4"
    },
    {
      "bufferView": 1,
      "componentType": 5126,
      "count": 65532,
      "max": [
        0.99819999933242798,
        0.99901998043060303
      ],
      "min": [
        0.0010799999581649899,
        0.072630003094673157
      ],
      "type": "VEC2"
    },
    {
      "bufferView": 0,
      "componentType": 5125,
      "count": 357621,
      "max": [
        65531
      ],
      "min": [
        0
      ],
      "type": "SCALAR"
    },
    {
      "bufferView": 2,
      "byteOffset": 1572768,
      "componentType": 5126,
      "count": 65532,
      "max": [
        9.2558097839355469,
        12.104729652404785,
        12.217530250549316
      ],
      "min": [
        -13.23600959777832,
        -5.5031599998474121,
        -3.9592800140380859
      ],
      "type": "VEC3"
    },
    {
      "bufferView": 2,
      "byteOffset": 2359152,
      "componentType": 5126,
      "count": 65532,
      "max": [
        0.99997597932815552,
        0.99999338388442993,
        1
      ],
      "min": [
        -0.99999898672103882,
        -0.99999219179153442,
        -0.99979418516159058
      ],
      "type": "VEC3"
    },
    {
      "bufferView": 3,
      "byteOffset": 1048512,
      "componentType": 5126,
      "count": 65532,
      "max": [
        0.99999904632568359,
        0.99999946355819702,
        0.89408546686172485,
        1
      ],
      "min": [
        -0.99998944997787476,
        -0.99997293949127197,
        -0.86021441221237183,
        -1
      ],
      "type": "VEC4"
    },
    {
      "bufferView": 1,
      "byteOffset": 524256,
      "componentType": 5126,
      "count": 65532,
      "max": [
        0.99860000610351562,
        0.99987000226974487
      ],
      "min": [
        0.0009899999713525176,
        0.090230002999305725
      ],
      "type": "VEC2"
    },
    {
      "bufferView": 0,
      "byteOffset": 1430484,
      "componentType": 5125,
      "count": 336885,
      "max": [
        65531
      ],
      "min": [
        0
      ],
      "type": "SCALAR"
    },
    {
      "bufferView": 2,
      "byteOffset": 3145536,
      "componentType": 5126,
      "count": 52629,
      "max": [
        9.7948799133300781,
        12.103799819946289,
        12.091449737548828
      ],
      "min": [
        -13.16172981262207,
        -7.2686300277709961,
        -3.9604599475860596
      ],
      "type": "VEC3"
    },
    {
      "bufferView": 2,
      "byteOffset": 3777084,
      "componentType": 5126,
      "count": 52629,
      "max": [
        0.99998205900192261,
        0.99999541044235229,
        0.99999862909317017
      ],
      "min": [
        -0.99999457597732544,
        -0.99998992681503296,
        -0.99993562698364258
      ],
      "type": "VEC3"
    },
    {
      "bufferView": 3,
      "byteOffset": 2097024,
      "componentType": 5126,
      "count": 52629,
      "max": [
        0.99998694658279419,
        0.99999862909317017,
        0.97744220495223999,
        1
      ],
      "min": [
        -0.99999487400054932,
        -0.99998372793197632,
        -0.98348957300186157,
        -1
      ],
      "type": "VEC4"
    },
    {
      "bufferView": 1,
      "byteOffset": 1048512,
      "componentType": 5126,
      "count": 52629,
      "max": [
        0.99803000688552856,
        0.99901998043060303
      ],
      "min": [
        0,
        0
      ],
      "type": "VEC2"
    },
    {
      "bufferView": 0,
      "byteOffset": 2778024,
      "componentType": 5125,
      "count": 270294,
      "max": [
        52628
      ],
      "min": [
        0
      ],
      "type": "SCALAR"
    }
  ],
  "asset": {
    "extras": {
      "author": "mauricesvay (https://sketchfab.com/mauricesvay)",
      "license": "CC-BY-NC-4.0 (http://creativecommons.org/licenses/by-nc/4.0/)",
      "source": "https://sketchfab.com/models/387889bbe73648c38589a3fffd1f876c",
      "title": "Les Bourgeois de Calais by Rodin"
    },
    "generator": "Sketchfab-3.18.7",
    "version": "2.0"
  },
  "bufferViews": [
    {
      "buffer": 0,
      "byteLength": 3859200,
      "byteOffset": 0,
      "name": "floatBufferViews",
      "target": 34963
    },
    {
      "buffer": 0,
      "byteLength": 1469544,
      "byteOffset": 3859200,
      "byteStride": 8,
      "name": "floatBufferViews",
      "target": 34962
    },
    {
      "buffer": 0,
      "byteLength": 4408632,
      "byteOffset": 5328744,
      "byteStride": 12,
      "name": "floatBufferViews",
      "target": 34962
    },
    {
      "buffer": 0,
      "byteLength": 2939088,
      "byteOffset": 9737376,
      "byteStride": 16,
      "name": "floatBufferViews",
      "target": 34962
    }
  ],
  "buffers": [
    {
      "byteLength": 12676464,
      "uri": "scene.bin"
    }
  ],
  "images": [
    {
      "uri": "textures/Texture_0_baseColor.jpg"
    }
  ],
  "materials": [
    {
      "doubleSided": true,
      "emissiveFactor": [
        0,
        0,
        0
      ],
      "name": "Texture_0",
      "pbrMetallicRoughness": {
        "baseColorFactor": [
          1,
          1,
          1,
          1
        ],
        "baseColorTexture": {
          "index": 0,
          "texCoord": 0
        },
        "metallicFactor": 0.20000000000000001,
        "roughnessFactor": 0.80000000000000004
      }
    }
  ],
  "meshes": [
    {
      "name": "mesh",
      "primitives": [
        {
          "attributes": {
            "NORMAL": 1,
            "POSITION": 0,
            "TANGENT": 2,
            "TEXCOORD_0": 3
          },
          "indices": 4,
          "material": 0,
          "mode": 4
        }
      ]
    },
    {
      "name": "mesh",
      "primitives": [
        {
          "attributes": {
            "NORMAL": 6,
            "POSITION": 5,
            "TANGENT": 7,
            "TEXCOORD_0": 8
          },
          "indices": 9,
          "material": 0,
          "mode": 4
        }
      ]
    },
    {
      "name": "mesh",
      "primitives": [
        {
          "attributes": {
            "NORMAL": 11,
            "POSITION": 10,
            "TANGENT": 12,
            "TEXCOORD_0": 13
          },
          "indices": 14,
          "material": 0,
          "mode": 4
        }
      ]
    }
  ],
  "nodes": [
    {
      "children": [
        1
      ],
      "name": "RootNode (gltf orientation matrix)",
      "rotation": [
        -0.70710678118654746,
        -0,
        -0,
        0.70710678118654757
      ]
    },
    {
      "children": [
        2
      ],
      "name": "RootNode (model correction matrix)"
    },
    {
      "children": [
        3
      ],
      "name": "Root"
    },
    {
      "children": [
        4,
        5,
        6
      ],
      "matrix": [
        0.99394000000000005,
        -0.10986000000000001,
        -0.0021000000000000003,
        0,
        0.10988000000000001,
        0.99375999999999998,
        0.019040000000000001,
        0,
        0,
        -0.019150000000000004,
        0.99982000000000004,
        0,
        0,
        0,
        4.7565799999999996,
        1
      ],
      "name": "mesh"
    },
    {
      "mesh": 0,
      "name": "mesh"
    },
    {
      "mesh": 1,
      "name": "mesh"
    },
    {
      "mesh": 2,
      "name": "mesh"
    }
  ],
  "samplers": [
    {
      "magFilter": 9729,
      "minFilter": 9987,
      "wrapS": 10497,
      "wrapT": 10497
    }
  ],
  "scene": 0,
  "scenes": [
    {
      "name": "OSG_Scene",
      "nodes": [
        0
      ]
    }
  ],
  "textures": [
    {
      "sampler": 0,
      "source": 0
    }
  ]
}

