{
  "accessors": [
    {
      "bufferView": 2,
      "componentType": 5126,
      "count": 58727,
      "max": [
        10.091882705688477,
        10.054585456848145,
        12.359569549560547
      ],
      "min": [
        -10.227493286132812,
        -10.275217056274414,
        -16.733362197875977
      ],
      "type": "VEC3"
    },
    {
      "bufferView": 2,
      "byteOffset": 704724,
      "componentType": 5126,
      "count": 58727,
      "max": [
        0.99999880790710449,
        0.99999392032623291,
        1
      ],
      "min": [
        -0.99998986721038818,
        -1,
        -0.99997484683990479
      ],
      "type": "VEC3"
    },
    {
      "bufferView": 3,
      "componentType": 5126,
      "count": 58727,
      "max": [
        0.99996364116668701,
        0.99999934434890747,
        0.9999813437461853,
        1
      ],
      "min": [
        -0.99998021125793457,
        -0.99999582767486572,
        -1,
        -1
      ],
      "type": "VEC4"
    },
    {
      "bufferView": 1,
      "componentType": 5126,
      "count": 58727,
      "max": [
        0.99615597724914551,
        1
      ],
      "min": [
        0,
        0
      ],
      "type": "VEC2"
    },
    {
      "bufferView": 0,
      "componentType": 5125,
      "count": 339888,
      "max": [
        58726
      ],
      "min": [
        0
      ],
      "type": "SCALAR"
    },
    {
      "bufferView": 2,
      "byteOffset": 1409448,
      "componentType": 5126,
      "count": 33,
      "max": [
        3.8409619331359863,
        3.7420461177825928,
        9.1332874298095703
      ],
      "min": [
        -4.4344611167907715,
        -4.5333781242370605,
        9.1332874298095703
      ],
      "type": "VEC3"
    },
    {
      "bufferView": 2,
      "byteOffset": 1409844,
      "componentType": 5126,
      "count": 33,
      "max": [
        0,
        -0,
        1
      ],
      "min": [
        0,
        -0,
        1
      ],
      "type": "VEC3"
    },
    {
      "bufferView": 0,
      "byteOffset": 1359552,
      "componentType": 5125,
      "count": 96,
      "max": [
        32
      ],
      "min": [
        0
      ],
      "type": "SCALAR"
    }
  ],
  "asset": {
    "extras": {
      "author": "Cleveland Museum of Art (https://sketchfab.com/clevelandart)",
      "license": "CC0-1.0 (http://creativecommons.org/publicdomain/zero/1.0/)",
      "source": "https://sketchfab.com/3d-models/197016-neck-amphora-0bb2525bdd734bf69d5a7b2b051928ad",
      "title": "1970.16 Neck Amphora"
    },
    "generator": "Sketchfab-7.80.0",
    "version": "2.0"
  },
  "bufferViews": [
    {
      "buffer": 0,
      "byteLength": 1359936,
      "byteOffset": 0,
      "name": "floatBufferViews",
      "target": 34963
    },
    {
      "buffer": 0,
      "byteLength": 469816,
      "byteOffset": 1359936,
      "byteStride": 8,
      "name": "floatBufferViews",
      "target": 34962
    },
    {
      "buffer": 0,
      "byteLength": 1410240,
      "byteOffset": 1829752,
      "byteStride": 12,
      "name": "floatBufferViews",
      "target": 34962
    },
    {
      "buffer": 0,
      "byteLength": 939632,
      "byteOffset": 3239992,
      "byteStride": 16,
      "name": "floatBufferViews",
      "target": 34962
    }
  ],
  "buffers": [
    {
      "byteLength": 4179624,
      "uri": "scene.bin"
    }
  ],
  "images": [
    {
      "uri": "textures/1970.16_Neck_Amphora_100K_baseColor.png"
    },
    {
      "uri": "textures/1970.16_Neck_Amphora_100K_normal.png"
    }
  ],
  "materials": [
    {
      "doubleSided": true,
      "name": "1970.16_Neck_Amphora_100K",
      "normalTexture": {
        "index": 1,
        "scale": 0.62590910020000001,
        "texCoord": 0
      },
      "pbrMetallicRoughness": {
        "baseColorFactor": [
          1,
          1,
          1,
          1
        ],
        "baseColorTexture": {
          "index": 0,
          "texCoord": 0
        },
        "metallicFactor": 0,
        "roughnessFactor": 0.38954546379999999
      }
    },
    {
      "doubleSided": true,
      "emissiveFactor": [
        0,
        0,
        0
      ],
      "name": "Material.001",
      "pbrMetallicRoughness": {
        "baseColorFactor": [
          0.0134769599,
          0.0134769599,
          0.0134769599,
          1
        ],
        "metallicFactor": 0,
        "roughnessFactor": 1
      }
    }
  ],
  "meshes": [
    {
      "primitives": [
        {
          "attributes": {
            "NORMAL": 1,
            "POSITION": 0,
            "TANGENT": 2,
            "TEXCOORD_0": 3
          },
          "indices": 4,
          "material": 0,
          "mode": 4
        }
      ]
    },
    {
      "primitives": [
        {
          "attributes": {
            "NORMAL": 6,
            "POSITION": 5
          },
          "indices": 7,
          "material": 1,
          "mode": 4
        }
      ]
    }
  ],
  "nodes": [
    {
      "children": [
        1
      ],
      "name": "RootNode (gltf orientation matrix)",
      "rotation": [
        -0.70710678118654746,
        -0,
        -0,
        0.70710678118654757
      ]
    },
    {
      "children": [
        2
      ],
      "name": "RootNode (model correction matrix)"
    },
    {
      "children": [
        3,
        4
      ],
      "name": "1970.16 Neck Amphora 100K.obj.cleaner.materialmerger.gles"
    },
    {
      "mesh": 0,
      "name": ""
    },
    {
      "mesh": 1,
      "name": ""
    }
  ],
  "samplers": [
    {
      "magFilter": 9729,
      "minFilter": 9987,
      "wrapS": 10497,
      "wrapT": 10497
    }
  ],
  "scene": 0,
  "scenes": [
    {
      "name": "OSG_Scene",
      "nodes": [
        0
      ]
    }
  ],
  "textures": [
    {
      "sampler": 0,
      "source": 0
    },
    {
      "sampler": 0,
      "source": 1
    }
  ]
}

