{
  "accessors": [
    {
      "bufferView": 2,
      "componentType": 5126,
      "count": 65532,
      "max": [
        20.693403244018555,
        28.473432540893555,
        20.090642929077148
      ],
      "min": [
        7.6103224754333496,
        3.0250320434570312,
        2.8183083534240723
      ],
      "type": "VEC3"
    },
    {
      "bufferView": 2,
      "byteOffset": 786384,
      "componentType": 5126,
      "count": 65532,
      "max": [
        0.99997431039810181,
        0.99969470500946045,
        0.99989092350006104
      ],
      "min": [
        -0.96718347072601318,
        -0.81719481945037842,
        -0.99995130300521851
      ],
      "type": "VEC3"
    },
    {
      "bufferView": 3,
      "componentType": 5126,
      "count": 65532,
      "max": [
        0.99215686321258545,
        0.92549020051956177,
        0.89803922176361084,
        1
      ],
      "min": [
        0.054901961237192154,
        0.050980392843484879,
        0.035294119268655777,
        1
      ],
      "type": "VEC4"
    },
    {
      "bufferView": 1,
      "componentType": 5126,
      "count": 65532,
      "max": [
        0.99959999322891235,
        0.31040000915527344
      ],
      "min": [
        0,
        0
      ],
      "type": "VEC2"
    },
    {
      "bufferView": 0,
      "componentType": 5125,
      "count": 349350,
      "max": [
        65531
      ],
      "min": [
        0
      ],
      "type": "SCALAR"
    },
    {
      "bufferView": 2,
      "byteOffset": 1572768,
      "componentType": 5126,
      "count": 65532,
      "max": [
        20.686119079589844,
        28.473432540893555,
        22.201520919799805
      ],
      "min": [
        3.3978958129882812,
        0.77617263793945312,
        4.7447094917297363
      ],
      "type": "VEC3"
    },
    {
      "bufferView": 2,
      "byteOffset": 2359152,
      "componentType": 5126,
      "count": 65532,
      "max": [
        0.99995017051696777,
        0.99982857704162598,
        0.99996072053909302
      ],
      "min": [
        -0.99997949600219727,
        -0.99964457750320435,
        -0.99991941452026367
      ],
      "type": "VEC3"
    },
    {
      "bufferView": 3,
      "byteOffset": 1048512,
      "componentType": 5126,
      "count": 65532,
      "max": [
        0.9686274528503418,
        0.9529411792755127,
        0.94901961088180542,
        1
      ],
      "min": [
        0.039215687662363052,
        0.039215687662363052,
        0.027450980618596077,
        1
      ],
      "type": "VEC4"
    },
    {
      "bufferView": 1,
      "byteOffset": 524256,
      "componentType": 5126,
      "count": 65532,
      "max": [
        0.99970000982284546,
        0.32679998874664307
      ],
      "min": [
        0,
        0
      ],
      "type": "VEC2"
    },
    {
      "bufferView": 0,
      "byteOffset": 1397400,
      "componentType": 5125,
      "count": 317574,
      "max": [
        65531
      ],
      "min": [
        0
      ],
      "type": "SCALAR"
    },
    {
      "bufferView": 2,
      "byteOffset": 3145536,
      "componentType": 5126,
      "count": 65532,
      "max": [
        20.549896240234375,
        28.38604736328125,
        22.118808746337891
      ],
      "min": [
        0.23613929748535156,
        0.0025386810302734375,
        0
      ],
      "type": "VEC3"
    },
    {
      "bufferView": 2,
      "byteOffset": 3931920,
      "componentType": 5126,
      "count": 65532,
      "max": [
        0.99989765882492065,
        0.99988394975662231,
        0.99918478727340698
      ],
      "min": [
        -0.99999707937240601,
        -0.99994510412216187,
        -0.9999840259552002
      ],
      "type": "VEC3"
    },
    {
      "bufferView": 3,
      "byteOffset": 2097024,
      "componentType": 5126,
      "count": 65532,
      "max": [
        0.97647058963775635,
        0.94509804248809814,
        0.9529411792755127,
        1
      ],
      "min": [
        0.0078431377187371254,
        0,
        0,
        1
      ],
      "type": "VEC4"
    },
    {
      "bufferView": 1,
      "byteOffset": 1048512,
      "componentType": 5126,
      "count": 65532,
      "max": [
        0.99940001964569092,
        0.32190001010894775
      ],
      "min": [
        0,
        0
      ],
      "type": "VEC2"
    },
    {
      "bufferView": 0,
      "byteOffset": 2667696,
      "componentType": 5125,
      "count": 323898,
      "max": [
        65531
      ],
      "min": [
        0
      ],
      "type": "SCALAR"
    },
    {
      "bufferView": 2,
      "byteOffset": 4718304,
      "componentType": 5126,
      "count": 65532,
      "max": [
        19.230312347412109,
        27.914674758911133,
        22.201520919799805
      ],
      "min": [
        0,
        0,
        1.1103591918945312
      ],
      "type": "VEC3"
    },
    {
      "bufferView": 2,
      "byteOffset": 5504688,
      "componentType": 5126,
      "count": 65532,
      "max": [
        0.99079763889312744,
        0.99802172183990479,
        0.9999614953994751
      ],
      "min": [
        -0.99999094009399414,
        -0.99933844804763794,
        -0.99995154142379761
      ],
      "type": "VEC3"
    },
    {
      "bufferView": 3,
      "byteOffset": 3145536,
      "componentType": 5126,
      "count": 65532,
      "max": [
        0.97647058963775635,
        0.94509804248809814,
        0.9529411792755127,
        1
      ],
      "min": [
        0.054901961237192154,
        0.031372550874948502,
        0.015686275437474251,
        1
      ],
      "type": "VEC4"
    },
    {
      "bufferView": 1,
      "byteOffset": 1572768,
      "componentType": 5126,
      "count": 65532,
      "max": [
        0.99959999322891235,
        0.31749999523162842
      ],
      "min": [
        0,
        0
      ],
      "type": "VEC2"
    },
    {
      "bufferView": 0,
      "byteOffset": 3963288,
      "componentType": 5125,
      "count": 314865,
      "max": [
        65531
      ],
      "min": [
        0
      ],
      "type": "SCALAR"
    },
    {
      "bufferView": 2,
      "byteOffset": 6291072,
      "componentType": 5126,
      "count": 65533,
      "max": [
        20.512422561645508,
        28.344654083251953,
        21.252586364746094
      ],
      "min": [
        0.53001594543457031,
        0.19071388244628906,
        0.099276542663574219
      ],
      "type": "VEC3"
    },
    {
      "bufferView": 2,
      "byteOffset": 7077468,
      "componentType": 5126,
      "count": 65533,
      "max": [
        0.99836117029190063,
        0.99969470500946045,
        0.99998801946640015
      ],
      "min": [
        -0.99979871511459351,
        -0.99993497133255005,
        -0.99999892711639404
      ],
      "type": "VEC3"
    },
    {
      "bufferView": 3,
      "byteOffset": 4194048,
      "componentType": 5126,
      "count": 65533,
      "max": [
        0.97647058963775635,
        0.94509804248809814,
        0.9529411792755127,
        1
      ],
      "min": [
        0,
        0,
        0,
        1
      ],
      "type": "VEC4"
    },
    {
      "bufferView": 1,
      "byteOffset": 2097024,
      "componentType": 5126,
      "count": 65533,
      "max": [
        0.99959999322891235,
        0.32089999318122864
      ],
      "min": [
        0,
        0
      ],
      "type": "VEC2"
    },
    {
      "bufferView": 0,
      "byteOffset": 5222748,
      "componentType": 5125,
      "count": 300357,
      "max": [
        65532
      ],
      "min": [
        0
      ],
      "type": "SCALAR"
    },
    {
      "bufferView": 2,
      "byteOffset": 7863864,
      "componentType": 5126,
      "count": 49698,
      "max": [
        19.087310791015625,
        28.472833633422852,
        21.011714935302734
      ],
      "min": [
        0.062442779541015625,
        0.43587112426757812,
        0.0588836669921875
      ],
      "type": "VEC3"
    },
    {
      "bufferView": 2,
      "byteOffset": 8460240,
      "componentType": 5126,
      "count": 49698,
      "max": [
        0.99980008602142334,
        0.99982857704162598,
        0.99999946355819702
      ],
      "min": [
        -0.99999326467514038,
        -0.99998223781585693,
        -0.9999840259552002
      ],
      "type": "VEC3"
    },
    {
      "bufferView": 3,
      "byteOffset": 5242576,
      "componentType": 5126,
      "count": 49698,
      "max": [
        0.96078431606292725,
        0.93725490570068359,
        0.87058824300765991,
        1
      ],
      "min": [
        0.043137256056070328,
        0.043137256056070328,
        0.031372550874948502,
        1
      ],
      "type": "VEC4"
    },
    {
      "bufferView": 1,
      "byteOffset": 2621288,
      "componentType": 5126,
      "count": 49698,
      "max": [
        0.99870002269744873,
        0.32850000262260437
      ],
      "min": [
        9.9999997473787516e-05,
        0.0052000000141561031
      ],
      "type": "VEC2"
    },
    {
      "bufferView": 0,
      "byteOffset": 6424176,
      "componentType": 5125,
      "count": 171324,
      "max": [
        49697
      ],
      "min": [
        0
      ],
      "type": "SCALAR"
    }
  ],
  "asset": {
    "extras": {
      "author": "Cleveland Museum of Art (https://sketchfab.com/clevelandart)",
      "license": "CC0-1.0 (http://creativecommons.org/publicdomain/zero/1.0/)",
      "source": "https://sketchfab.com/3d-models/1952513-head-of-amenhotep-iii-ff3dd192a81944a0a93a54beb8a7a27f",
      "title": "1952.513 Head of Amenhotep III"
    },
    "generator": "Sketchfab-7.88.0",
    "version": "2.0"
  },
  "bufferViews": [
    {
      "buffer": 0,
      "byteLength": 7109472,
      "byteOffset": 0,
      "name": "floatBufferViews",
      "target": 34963
    },
    {
      "buffer": 0,
      "byteLength": 3018872,
      "byteOffset": 7109472,
      "byteStride": 8,
      "name": "floatBufferViews",
      "target": 34962
    },
    {
      "buffer": 0,
      "byteLength": 9056616,
      "byteOffset": 10128344,
      "byteStride": 12,
      "name": "floatBufferViews",
      "target": 34962
    },
    {
      "buffer": 0,
      "byteLength": 6037744,
      "byteOffset": 19184960,
      "byteStride": 16,
      "name": "floatBufferViews",
      "target": 34962
    }
  ],
  "buffers": [
    {
      "byteLength": 25222704,
      "uri": "scene.bin"
    }
  ],
  "images": [
    {
      "uri": "textures/egyypt-head-cma_Material_u1_v1_baseColor.jpeg"
    },
    {
      "uri": "textures/egyypt-head-cma_Material_u1_v1_metallicRoughness.png"
    }
  ],
  "materials": [
    {
      "doubleSided": true,
      "emissiveFactor": [
        0.10000000000000001,
        0.10000000000000001,
        0.10000000000000001
      ],
      "emissiveTexture": {
        "index": 0,
        "texCoord": 0
      },
      "name": "egyypt-head-cma_Material_u1_v1",
      "occlusionTexture": {
        "index": 1,
        "strength": 0.87802085876464842,
        "texCoord": 0
      },
      "pbrMetallicRoughness": {
        "baseColorFactor": [
          1,
          1,
          1,
          1
        ],
        "baseColorTexture": {
          "index": 0,
          "texCoord": 0
        },
        "metallicFactor": 0,
        "metallicRoughnessTexture": {
          "index": 1,
          "texCoord": 0
        },
        "roughnessFactor": 0.78427085876464842
      }
    }
  ],
  "meshes": [
    {
      "primitives": [
        {
          "attributes": {
            "COLOR_0": 2,
            "NORMAL": 1,
            "POSITION": 0,
            "TEXCOORD_0": 3
          },
          "indices": 4,
          "material": 0,
          "mode": 4
        }
      ]
    },
    {
      "primitives": [
        {
          "attributes": {
            "COLOR_0": 7,
            "NORMAL": 6,
            "POSITION": 5,
            "TEXCOORD_0": 8
          },
          "indices": 9,
          "material": 0,
          "mode": 4
        }
      ]
    },
    {
      "primitives": [
        {
          "attributes": {
            "COLOR_0": 12,
            "NORMAL": 11,
            "POSITION": 10,
            "TEXCOORD_0": 13
          },
          "indices": 14,
          "material": 0,
          "mode": 4
        }
      ]
    },
    {
      "primitives": [
        {
          "attributes": {
            "COLOR_0": 17,
            "NORMAL": 16,
            "POSITION": 15,
            "TEXCOORD_0": 18
          },
          "indices": 19,
          "material": 0,
          "mode": 4
        }
      ]
    },
    {
      "primitives": [
        {
          "attributes": {
            "COLOR_0": 22,
            "NORMAL": 21,
            "POSITION": 20,
            "TEXCOORD_0": 23
          },
          "indices": 24,
          "material": 0,
          "mode": 4
        }
      ]
    },
    {
      "primitives": [
        {
          "attributes": {
            "COLOR_0": 27,
            "NORMAL": 26,
            "POSITION": 25,
            "TEXCOORD_0": 28
          },
          "indices": 29,
          "material": 0,
          "mode": 4
        }
      ]
    }
  ],
  "nodes": [
    {
      "children": [
        1
      ],
      "name": "RootNode (gltf orientation matrix)",
      "rotation": [
        -0.70710678118654746,
        -0,
        -0,
        0.70710678118654757
      ]
    },
    {
      "children": [
        2
      ],
      "matrix": [
        0,
        1,
        -1.1102230246251565e-16,
        0,
        1.1102230246251565e-16,
        -2.2204460492503131e-16,
        -1,
        0,
        -1,
        1.1102230246251565e-16,
        -2.2204460492503131e-16,
        0,
        -2.2975530624389648,
        -14.893986701965332,
        -17.191539764404297,
        1
      ],
      "name": "RootNode (model correction matrix)"
    },
    {
      "children": [
        3
      ],
      "matrix": [
        1,
        0,
        0,
        0,
        0,
        1,
        0,
        0,
        0,
        0,
        1,
        0,
        -13.002918243408203,
        -31.786870956420898,
        -10.74212646484375,
        1
      ],
      "name": "egyypt-head-cma.obj.cleaner.materialmerger.gles"
    },
    {
      "children": [
        4,
        5,
        6,
        7,
        8,
        9
      ],
      "name": ""
    },
    {
      "mesh": 0,
      "name": ""
    },
    {
      "mesh": 1,
      "name": ""
    },
    {
      "mesh": 2,
      "name": ""
    },
    {
      "mesh": 3,
      "name": ""
    },
    {
      "mesh": 4,
      "name": ""
    },
    {
      "mesh": 5,
      "name": ""
    }
  ],
  "samplers": [
    {
      "magFilter": 9729,
      "minFilter": 9987,
      "wrapS": 10497,
      "wrapT": 10497
    }
  ],
  "scene": 0,
  "scenes": [
    {
      "name": "OSG_Scene",
      "nodes": [
        0
      ]
    }
  ],
  "textures": [
    {
      "sampler": 0,
      "source": 0
    },
    {
      "sampler": 0,
      "source": 1
    }
  ]
}

